<?xml version="1.0" standalone="no"?><!DOCTYPE svg PUBLIC "-//W3C//DTD SVG 1.1//EN" "http://www.w3.org/Graphics/SVG/1.1/DTD/svg11.dtd"><svg t="1727166870630" class="icon" viewBox="0 0 1024 1024" version="1.1" xmlns="http://www.w3.org/2000/svg" p-id="9769" xmlns:xlink="http://www.w3.org/1999/xlink" width="128" height="128"><path d="M414.72 38.912c119.69536-22.2208 247.6032 0.1024 350.42304 66.048 138.12736 85.2992 228.44416 243.8144 228.0448 406.528 2.24256 97.9968-27.96544 195.8912-82.54464 276.992-85.4016 128-234.3936 212.0704-388.608 214.74304-130.1504 5.31456-261.5296-45.88544-353.8944-137.53344C75.5712 777.4208 20.5824 650.3424 20.5824 522.3424c-2.7648-131.6864 52.5312-263.3728 147.8656-354.0992C235.1104 101.6832 322.7648 57.7536 414.72 38.912m44.3392 303.7184c6.2464 6.144 12.5952 12.3904 18.7392 18.5344-15.872 1.8432-31.8464 3.584-47.8208 5.3248 7.3728-14.336 14.848-28.7744 22.2208-43.1104-48.4352 0.7168-96.8704-0.7168-145.3056 0.3072-33.792-0.6144-64.7168 30.8224-64.1024 64.512-0.4096 89.2928-0.3072 178.7904-0.1024 268.0832-1.4336 34.2016 29.3888 67.08224 63.6928 66.8672 133.5296 0.6144 266.9568-0.21504 400.384 0.3072 38.7072 5.3248 77.9264-29.0816 76.29824-68.1984 0.70656-85.4016-0.11264-170.7008 0.29696-256 3.7888-37.1712-26.71616-75.8784-65.024-75.5712-49.7664-0.9216-99.54304-0.1024-149.2992 0.4096 8.192 13.5168 16.47616 27.136 24.8832 40.6528-16.1792-2.048-32.3584-4.096-48.5376-6.0416-0.1024 16.0768-0.29696 32.256-0.39936 48.4352 65.7408 6.144 131.4816-3.072 196.90496 6.2464 0.1024 10.9568 0.21504 32.9728 0.3072 43.9296-152.7808-0.6144-305.5616 1.2288-458.24-0.9216 0-10.752 0-32.256-0.1024-43.1104 64.8192-5.9392 129.6384-2.2528 194.4576-6.3488 0.9216-26.624 1.536-53.1456 2.3552-79.7696 32.5632 20.2752 12.4928 67.072 16.896 99.1232 10.0352-0.1024 20.0704 0.3072 30.09536 1.2288-0.50176-32.256-0.39936-64.6144 0.52224-96.8704 12.0832 5.2224 24.15616 10.5472 36.2496 15.872-13.73184-35.4304-32.3584-68.7104-51.9168-101.1712-18.432 32.0512-34.4064 65.536-53.4528 97.28z" fill="#57b75d" p-id="9770"></path><path d="M279.2448 531.5584c19.0464-25.3952 52.4288-15.872 79.5648-17.7152 61.1328 1.9456 122.4704-2.56 183.3984 1.9456 23.6544-0.3072 20.7872 36.2496-0.6144 39.5264-81.41824 3.3792-163.0208 0.8192-244.54144 0.9216-4.49536-6.13376-13.30176-18.432-17.80736-24.6784z" fill="#57b75d" p-id="9771"></path></svg>