<?xml version="1.0" standalone="no"?><!DOCTYPE svg PUBLIC "-//W3C//DTD SVG 1.1//EN" "http://www.w3.org/Graphics/SVG/1.1/DTD/svg11.dtd"><svg t="1727166962120" class="icon" viewBox="0 0 1024 1024" version="1.1" xmlns="http://www.w3.org/2000/svg" p-id="12554" xmlns:xlink="http://www.w3.org/1999/xlink" width="128" height="128"><path d="M512 0c282.770286 0 512 229.229714 512 512s-229.229714 512-512 512S0 794.770286 0 512 229.229714 0 512 0z m-1.353143 219.648c-80.603429 0-146.285714 74.24-146.285714 166.546286 0 43.702857 15.250286 83.456 38.326857 112.932571 14.189714 8.886857 24.502857 25.6 24.502857 43.702857 0 16.676571-7.826286 31.963429-20.589714 41.179429v1.462857l-1.353143 0.365714c-0.841143 0.365714-1.609143 1.024-2.56 1.024a49.115429 49.115429 0 0 1-26.989714 7.826286c-62.866286 20.589714-115.419429 53.979429-146.322286 96.219429h1.426286l-3.108572 4.973714a67.803429 67.803429 0 0 0-8.265143 33.389714c0 39.789714 33.389714 71.753143 74.24 73.142857h287.670858l-5.851429-6.363428a159.597714 159.597714 0 0 1-39.606857-105.142857c0-51.492571 24.502857-97.28 62.829714-126.061715a51.273143 51.273143 0 0 1-4.973714-22.016c0-18.139429 14.226286-33.389714 24.502857-43.702857 24.502857-29.476571 38.4-69.229714 38.4-112.932571 0-92.342857-65.389714-166.546286-145.993143-166.546286z m183.222857 360.813714c-61.074286 0-110.445714 49.371429-110.445714 110.445715s49.371429 110.445714 110.445714 110.445714c61.110857 0 110.482286-49.371429 110.482286-110.445714s-49.371429-110.445714-110.445714-110.445715z m14.628572 42.276572v46.153143h46.153143v29.147428h-46.189715v46.153143h-29.110857v-46.153143h-46.189714v-29.147428h46.189714v-46.153143h29.110857z" fill="#57b75d" p-id="12555"></path></svg>