<?xml version="1.0" standalone="no"?><!DOCTYPE svg PUBLIC "-//W3C//DTD SVG 1.1//EN" "http://www.w3.org/Graphics/SVG/1.1/DTD/svg11.dtd"><svg t="1727166762998" class="icon" viewBox="0 0 1024 1024" version="1.1" xmlns="http://www.w3.org/2000/svg" p-id="7762" xmlns:xlink="http://www.w3.org/1999/xlink" width="128" height="128"><path d="M512 479.77472c0 57.16992-46.78144 103.95136-103.95136 103.95136 57.16992 0 103.95136 46.77632 103.95136 103.95648 0-57.18016 46.77632-103.95648 103.95136-103.95648-57.17504 0-103.95136-46.78144-103.95136-103.95136z" fill="#57b75d" p-id="7763"></path><path d="M522.24 35.84C259.072 35.84 46.08 249.344 46.08 512c0 263.168 213.504 476.16 476.16 476.16 263.168 0 476.16-213.504 476.16-476.16 0.512-262.656-212.992-476.16-476.16-476.16z m179.98848 699.65312c-11.43296 15.5904-30.15168 24.94464-49.89952 24.94464H371.66592c-19.74784 0-38.46144-9.35424-49.8944-24.94464-23.9104-34.304-38.46144-75.88352-38.46144-120.59136 0-88.35072 49.8944-165.2736 122.65984-203.74016 6.24128-3.11296 7.27552-10.3936 3.11808-15.5904-3.11808-3.11808-5.20192-8.31488-8.32-12.47744-19.74272-34.304-17.664-73.8048 4.16256-86.28224 5.1968-3.11296 10.3936-4.16256 16.62976-4.16256 5.20192 0 11.43296 1.04448 16.63488 5.20192 1.03936 1.03936 3.11296 1.03936 4.16256 1.03936 3.11296 0 6.23616-1.03936 8.30976-4.16256 13.5168-18.70848 35.34848-31.1808 60.29312-31.1808 24.94976 0 46.78144 12.47232 60.288 31.1808 2.08384 3.11808 5.20192 4.16256 8.32 4.16256 1.03936 0 3.11808 0 4.15744-1.03936 6.24128-3.11808 11.43296-4.15744 17.66912-4.15744 6.2464 0 11.43296 1.03424 16.62976 4.15744 22.87616 12.47744 23.91552 51.97312 4.16256 86.28224-2.0736 4.16256-5.19168 8.31488-8.30976 12.47744-4.16256 5.20192-3.11808 12.47232 3.11808 15.5904 73.79968 37.4272 123.69408 114.35008 123.69408 202.7008 0 44.70784-14.55104 86.28736-38.46144 120.59136z" fill="#57b75d" p-id="7764"></path></svg>